<?xml version="1.0" encoding="UTF-8" standalone="no"?>
<!-- Created with Inkscape (http://www.inkscape.org/) -->

<svg
   version="1.1"
   id="svg55"
   width="260"
   height="280"
   viewBox="0 0 260 280"
   sodipodi:docname="MTB.webp.svg"
   inkscape:version="1.1.2 (0a00cf5339, 2022-02-04)"
   xmlns:inkscape="http://www.inkscape.org/namespaces/inkscape"
   xmlns:sodipodi="http://sodipodi.sourceforge.net/DTD/sodipodi-0.dtd"
   xmlns="http://www.w3.org/2000/svg"
   xmlns:svg="http://www.w3.org/2000/svg">
  <defs
     id="defs59" />
  <sodipodi:namedview
     id="namedview57"
     pagecolor="#ffffff"
     bordercolor="#666666"
     borderopacity="1.0"
     inkscape:pageshadow="2"
     inkscape:pageopacity="0.0"
     inkscape:pagecheckerboard="0"
     showgrid="false"
     inkscape:zoom="2.2678571"
     inkscape:cx="127.2126"
     inkscape:cy="140"
     inkscape:window-width="1600"
     inkscape:window-height="843"
     inkscape:window-x="0"
     inkscape:window-y="0"
     inkscape:window-maximized="1"
     inkscape:current-layer="g61" />
  <g
     inkscape:groupmode="layer"
     inkscape:label="Image"
     id="g61">
    <path
       style="fill:#000000;stroke-width:1.00995"
       d="m 48.890697,257.80293 c 0.94581,-0.61128 1.02153,-1.08821 0.25,-1.57457 -0.60872,-0.38373 -1.10676,-1.16239 -1.10676,-1.73035 0,-0.56795 0.675,-0.34416 1.5,0.49734 2.00917,2.04934 1.89634,3.71923 -0.25,3.70008 -1.36324,-0.0121 -1.45015,-0.20942 -0.39324,-0.8925 z m 7.33819,-1.64187 c 0.0204,-1.68299 0.2445,-2.24801 0.49804,-1.25558 0.25354,0.99242 0.23687,2.36941 -0.037,3.05998 -0.27393,0.69056 -0.48137,-0.12141 -0.46099,-1.8044 z m 2.94123,-0.255 c 0.11676,-2.40498 0.19798,-2.47772 0.56955,-0.51 0.23836,1.26225 0.82078,2.29499 1.29427,2.29499 0.47349,0 1.05591,-1.03274 1.29427,-2.29499 0.37157,-1.96772 0.45279,-1.89498 0.56955,0.51 0.10541,2.17129 -0.31566,2.80498 -1.86382,2.80498 -1.54817,0 -1.96923,-0.63369 -1.86382,-2.80498 z m 6.25335,1.34918 c -0.30123,-0.8007 -0.38004,-2.52194 -0.17514,-3.82498 0.27408,-1.74292 0.50623,-1.35811 0.87828,1.45581 0.52359,3.96007 0.24656,4.89351 -0.70314,2.36917 z m 4,0 c -0.30123,-0.8007 -0.38004,-2.52194 -0.17514,-3.82498 0.27408,-1.74292 0.50623,-1.35811 0.87828,1.45581 0.52359,3.96007 0.24656,4.89351 -0.70314,2.36917 z m 3.98476,-0.0405 c -0.30962,-0.82299 -0.33103,-2.08523 -0.0476,-2.80498 0.28346,-0.71975 0.5509,-0.30956 0.59433,0.91156 0.0434,1.2211 0.86644,2.4301 1.82894,2.68665 1.64009,0.43717 1.63812,0.4739 -0.0314,0.58479 -0.97976,0.0651 -2.03471,-0.55503 -2.34433,-1.37802 z m 10.64245,0.81065 c 0.73588,-0.36747 0.69977,-0.98369 -0.11645,-1.98683 -0.96036,-1.18031 -0.8661,-1.33004 0.50053,-0.79514 1.84364,0.72163 1.6912,2.68691 -0.23832,3.07242 -0.70059,0.13997 -0.76213,0.0173 -0.14576,-0.29045 z m 3.98326,-2.88432 c 0,-1.96349 0.17577,-3.56998 0.39059,-3.56998 0.21483,0 0.57447,1.60649 0.7992,3.56998 0.22474,1.96348 0.049,3.56997 -0.39059,3.56997 -0.43956,0 -0.7992,-1.60649 -0.7992,-3.56997 z m 3.36419,2.04681 c -0.34636,-0.92067 -0.14518,-2.1682 0.44708,-2.77231 0.76911,-0.78448 0.91661,-0.4734 0.51615,1.08856 -0.39481,1.53995 -0.103,2.18692 0.9864,2.18692 0.85089,0 1.76459,-1.03274 2.03043,-2.29499 0.42859,-2.03495 0.4648,-2.00725 0.31955,0.24458 -0.19063,2.95557 -3.343,4.08997 -4.29961,1.54724 z m 6.21002,-0.17739 c -0.35188,-0.9353 -0.10901,-2.19755 0.53971,-2.80498 0.87488,-0.81921 0.97302,-0.73519 0.38001,0.32529 -0.5138,0.91883 -0.14058,1.92117 1.04442,2.80499 1.533063,1.14341 1.576853,1.37525 0.25977,1.37525 -0.87128,0 -1.87204,-0.76525 -2.22391,-1.70055 z m 5.698153,-2.37942 c 0,-2.52448 0.19502,-3.55723 0.43337,-2.29499 0.23836,1.26225 0.23836,3.32773 0,4.58997 -0.23835,1.26225 -0.43337,0.2295 -0.43337,-2.29498 z m 2.18652,2.99212 c -0.36253,-0.59832 -0.44468,-1.30661 -0.18255,-1.57398 0.26212,-0.26737 0.74306,0.22216 1.06875,1.08785 0.67618,1.79734 0.0999,2.11349 -0.8862,0.48613 z m 5.91541,-0.40849 c -0.30962,-0.82299 -0.33103,-2.08523 -0.0476,-2.80498 0.28346,-0.71975 0.55091,-0.30956 0.59433,0.91156 0.0434,1.2211 0.86645,2.4301 1.82895,2.68665 1.64009,0.43717 1.63812,0.4739 -0.0314,0.58479 -0.97977,0.0651 -2.03471,-0.55503 -2.34433,-1.37802 z m 4.9899,-0.0268 c -0.34636,-0.92067 -0.14518,-2.1682 0.44708,-2.77231 0.76911,-0.78448 0.91661,-0.4734 0.51615,1.08856 -0.39481,1.53995 -0.103,2.18692 0.9864,2.18692 0.85089,0 1.76459,-1.03274 2.03043,-2.29499 0.42859,-2.03495 0.4648,-2.00725 0.31955,0.24458 -0.19063,2.95557 -3.343,4.08997 -4.29961,1.54724 z m 9.83076,-1.02682 c 0.0204,-1.68299 0.2445,-2.24801 0.49804,-1.25558 0.25354,0.99242 0.23687,2.36941 -0.0371,3.05998 -0.27393,0.69056 -0.48137,-0.12141 -0.46099,-1.8044 z m 3,0 c 0.0204,-1.68299 0.2445,-2.24801 0.49804,-1.25558 0.25354,0.99242 0.23687,2.36941 -0.0371,3.05998 -0.27393,0.69056 -0.48137,-0.12141 -0.46099,-1.8044 z m 12.30505,0.51 c 2.04947,-2.30992 3.37295,-2.81189 1.56934,-0.59522 -0.9332,1.14692 -0.80383,1.54308 0.62756,1.92167 1.11153,0.29398 0.68891,0.52227 -1.10189,0.59521 -2.84308,0.1158 -2.86641,0.0749 -1.09501,-1.92166 z m 6.75,1.33687 c 2.1344,-0.56892 2.34228,-3.37686 0.25,-3.37686 -0.83333,0 -1.5,-0.90666 -1.5,-2.03999 0,-1.4706 0.628,-2.00696 2.25,-1.92167 1.69317,0.089 1.81691,0.23377 0.5,0.5848 -2.18624,0.58274 -2.20758,1.28069 -0.0875,2.86192 2.0569,1.53411 1.0983,4.64127 -1.3811,4.47659 -1.6695,-0.11089 -1.67147,-0.14762 -0.0314,-0.58479 z m 5.31978,-0.20172 c -0.30154,-0.49766 0.2344,-0.84191 1.19098,-0.765 1.22508,0.0985 1.73924,-0.61399 1.73924,-2.41014 0,-1.86174 -0.50111,-2.50686 -1.85667,-2.39018 -1.36425,0.11741 -1.56127,-0.14151 -0.74285,-0.97629 1.82339,-1.85984 4.49808,1.60787 3.71012,4.81013 -0.6313,2.56557 -2.93683,3.55348 -4.04082,1.73148 z m 5.84811,-0.4756 c -1.11143,-2.95425 -0.0104,-6.26952 2.08211,-6.26952 1.61755,0 2,0.68 2,3.556 0,2.57807 -0.4821,3.65071 -1.75302,3.90037 -0.96417,0.18939 -2.01225,-0.34469 -2.32909,-1.18685 z m 3.58211,-2.69956 c 0,-2.03999 -0.5,-3.05998 -1.5,-3.05998 -1,0 -1.5,1.01999 -1.5,3.05998 0,2.03999 0.5,3.05998 1.5,3.05998 1,0 1.5,-1.01999 1.5,-3.05998 z m 3,3.68894 c 0,-0.21507 0.9,-0.63109 2,-0.9245 1.1,-0.29342 2,-0.11745 2,0.39103 0,0.50848 -0.9,0.9245 -2,0.9245 -1.1,0 -2,-0.17597 -2,-0.39103 z m 7.60061,-3.19596 c 0.13416,-4.78457 1.39939,-5.92195 1.39939,-1.25798 0,2.01024 0.5625,3.88649 1.25,4.16945 0.6875,0.28296 0.35,0.55098 -0.75,0.59561 -1.65397,0.0671 -1.98259,-0.53967 -1.89939,-3.50708 z m 6.22508,1.22627 c 2.62983,-2.8553 2.76447,-4.47235 0.42431,-5.09611 -1.64009,-0.43717 -1.63812,-0.4739 0.0314,-0.5848 2.53597,-0.16844 3.26523,2.67496 1.26443,4.93003 -1.5993,1.80253 -1.59191,1.94002 0.12871,2.39367 1.14429,0.30169 0.73425,0.52544 -1.09883,0.59961 l -2.92432,0.11832 2.17432,-2.36072 z m 6.68624,1.55105 c 0.36314,-0.72583 0.19644,-1.88971 -0.37044,-2.58642 -0.76088,-0.93513 -0.52164,-1.26674 0.91391,-1.26674 2.35593,0 2.42636,0.607 0.37044,3.19289 -0.86578,1.08896 -1.27704,1.38609 -0.91391,0.66027 z m 5.15474,0.12967 c -1.14568,-1.16857 -0.73512,-3.09889 1.08333,-5.09354 0.9625,-1.05576 1.42816,-1.48978 1.0348,-0.96448 -0.39336,0.52528 0.0173,1.50137 0.91248,2.16905 0.95744,0.7141 1.36781,1.90475 0.99658,2.89148 -0.64006,1.70133 -2.81018,2.23885 -4.02719,0.99749 z m 3.33333,-1.86998 c 0,-0.8415 -0.675,-1.52999 -1.5,-1.52999 -0.825,0 -1.5,0.68849 -1.5,1.52999 0,0.84149 0.675,1.52999 1.5,1.52999 0.825,0 1.5,-0.6885 1.5,-1.52999 z m 4.25,1.84687 c 2.1344,-0.56892 2.34228,-3.37686 0.25,-3.37686 -0.83333,0 -1.5,-0.90666 -1.5,-2.03999 0,-1.4706 0.628,-2.00696 2.25,-1.92167 1.69317,0.089 1.81691,0.23377 0.5,0.5848 -2.18624,0.58274 -2.20758,1.28069 -0.0875,2.86192 2.0569,1.53411 1.0983,4.64127 -1.3811,4.47659 -1.6695,-0.11089 -1.67147,-0.14762 -0.0314,-0.58479 z m -33.34335,-4.13505 c 0.90213,-3.44066 3.4695,-3.7045 3.92745,-0.40359 0.20457,1.4746 -0.0693,2.15393 -0.70633,1.75232 -0.57223,-0.36073 -0.78693,-1.32967 -0.47711,-2.1532 0.30983,-0.82352 0.0652,-1.49732 -0.54367,-1.49732 -0.60885,0 -1.10699,0.8909 -1.10699,1.97979 0,1.08888 -0.41189,2.23944 -0.9153,2.55678 -0.53403,0.33665 -0.6082,-0.59426 -0.17805,-2.23478 z m -21.90665,-1.23076 c 0,-0.80709 -0.76736,-1.10427 -2.00138,-0.77512 -1.10076,0.2936 -1.7492,0.11765 -1.44098,-0.39104 0.30822,-0.50868 1.18228,-0.92486 1.94236,-0.92486 1.58323,0 2.99543,1.87464 2.10014,2.78784 -0.33008,0.33667 -0.60014,0.0231 -0.60014,-0.69682 z m 42.01429,-1.4936 c 0.64761,-0.66056 1.32381,-0.66056 1.97142,0 0.64762,0.66056 0.30953,1.00542 -0.98571,1.00542 -1.29524,0 -1.63333,-0.34486 -0.98571,-1.00542 z M 16.262877,213.64078 c 0.49828,-1.52473 2.77106,-2.36423 2.77106,-1.02356 0,0.54772 -0.7126,1.27478 -1.58356,1.61568 -0.97391,0.3812 -1.43108,0.15324 -1.1875,-0.59212 z m 61.33493,-4.70811 c -0.58192,-1.86698 -1.01753,-2.10704 -2.12391,-1.17047 -1.17829,0.99744 -1.4339,-1.5124 -1.66591,-16.35757 l -0.27405,-17.53581 -5.42338,15.1363 c -5.21754,14.56181 -7.07662,18.68426 -7.07662,15.69219 0,-1.05123 -0.43778,-0.97797 -1.82874,0.30599 -2.79031,2.57569 -4.16964,2.03969 -4.18657,-1.6269 -0.0116,-2.51552 -0.24909,-2.946 -0.98469,-1.78498 -0.53316,0.84149 -0.97627,1.01361 -0.98469,0.38249 -0.008,-0.63112 -1.36531,-1.42289 -3.01531,-1.75948 -2.91409,-0.59448 -4.27184,-2.70299 -1.74055,-2.70299 0.6927,0 1.79312,-0.87161 2.44537,-1.93692 1.05919,-1.72994 0.82848,-2.00532 -2.15897,-2.57698 -1.83968,-0.35203 -3.91356,-1.33896 -4.60861,-2.19319 -1.08844,-1.33771 -0.89432,-1.48481 1.39952,-1.06054 1.46478,0.27093 2.66324,0.064 2.66324,-0.45986 0,-0.52385 -0.6199,-0.95245 -1.37756,-0.95245 -0.75765,0 -1.96622,-0.72348 -2.68569,-1.60773 -1.08283,-1.33081 -1.06568,-1.76057 0.0995,-2.49511 1.1608,-0.73175 1.1012,-1.00733 -0.33983,-1.57137 -1.35245,-0.52936 -1.4902,-1.0002 -0.60935,-2.08278 0.8686,-1.06752 0.79858,-1.53172 -0.29565,-1.96 -0.93284,-0.36513 -1.288,-1.57446 -1.01651,-3.46127 0.22951,-1.59502 -0.076,-3.21099 -0.67882,-3.59104 -0.65366,-0.41206 -1.09612,0.12311 -1.09612,1.32579 0,3.20086 -1.05409,5.15838 -2.47766,4.60119 -1.0036,-0.39282 -1.22712,0.70161 -0.95057,4.65437 0.32891,4.70122 0.17013,5.16796 -1.75811,5.16796 -2.09522,0 -2.09299,0.0236 0.19365,2.04645 2.53398,2.24165 2.53841,2.2214 -0.88448,4.04066 -2.70326,1.43677 -3.04742,1.12882 -6.08589,-5.44561 l -1.82484,-3.94847 -0.68015,3.15859 c -0.37408,1.73722 -0.42686,3.5766 -0.11729,4.0875 0.30956,0.51091 -0.44459,1.26887 -1.67591,1.68437 l -2.23875,0.75545 2.25,0.45145 c 3.28856,0.65983 2.74919,2.34955 -0.75,2.34955 h -3 v -9.8266 c 0,-5.40462 -0.54032,-11.66609 -1.20072,-13.91436 -1.19203,-4.05818 -5.92322,-10.08862 -8.79928,-11.21568 -2.6362803,-1.0331 0.97993,-2.74999 5.829,-2.7675 l 4.32901,-0.0156 -0.32901,-7.90495 c -0.25329,-6.08587 0.0162,-8.19892 1.171,-9.18244 1.32979,-1.13254 1.32705,-1.21699 -0.0241,-0.74428 -1.02765,0.35953 -2.73523,-1.30097 -5.24198,-5.09746 l -3.71784,-5.63069 h 14.02336 c 12.14312,0 14.10877,0.22701 14.66033,1.69309 0.42519,1.13017 -0.28815,2.4455 -2.14556,3.95616 -2.00084,1.62731 -2.39929,2.41849 -1.41835,2.81635 0.90532,0.36719 0.95543,0.58038 0.14898,0.63382 -0.66837,0.0443 -2.76997,-1.31187 -4.67024,-3.01369 -2.21153,-1.98057 -3.69866,-2.69214 -4.13194,-1.97707 -0.37229,0.61443 -1.87069,1.60254 -3.32976,2.1958 -1.62234,0.65965 -2.14481,1.2702 -1.345,1.57175 0.71933,0.2712 2.18459,-0.3162 3.25613,-1.30532 2.92737,-2.70219 3.63792,-0.84288 0.85662,2.24151 l -2.42061,2.68439 2.5,-1.29685 2.5,-1.29685 -2.452,2.71847 c -1.4614,1.62022 -3.06508,2.47852 -3.96952,2.12451 -0.83464,-0.32669 -1.19275,-0.26271 -0.79582,0.14216 0.39694,0.40487 -0.0668,1.6634 -1.03048,2.79673 -1.73488,2.04026 -1.72255,2.03999 1.24782,-0.0268 1.65,-1.14808 3.56166,-1.88538 4.24813,-1.63847 1.45452,0.52316 7.58114,-3.02832 11.41242,-6.61552 2.61302,-2.44656 2.67965,-2.45467 3.72943,-0.45392 0.92877,1.77012 0.61836,2.2552 -2.36807,3.70069 -1.89033,0.91495 -3.70763,2.11026 -4.03845,2.65625 -0.83642,1.3804 0.14492,1.24109 3.41776,-0.48519 2.69311,-1.42051 2.78519,-1.38869 2.37133,0.81954 -0.31475,1.67945 0.2171,2.59844 1.97719,3.41643 1.91439,0.8897 3.29358,3.70003 6.73086,13.71535 2.37771,6.92801 4.73168,13.73119 5.23105,15.11817 0.78019,2.16699 1.59592,0.38751 5.79759,-12.64734 2.68931,-8.34304 5.3624,-15.65136 5.94021,-16.24072 0.5778,-0.58934 1.05055,-1.88638 1.05055,-2.88229 0,-1.52225 0.40868,-1.65226 2.5651,-0.81599 3.47784,1.3487 3.89345,1.25734 2.4349,-0.53525 -0.68469,-0.84149 -1.86479,-1.52999 -2.62245,-1.52999 -0.75765,0 -1.37755,-0.91799 -1.37755,-2.03998 0,-2.63612 0.0496,-2.62519 5.68141,1.25164 2.62992,1.81041 5.75938,3.3353 6.95434,3.38865 1.19496,0.0533 3.45327,0.94727 5.01846,1.98647 1.96906,1.30736 2.46336,1.41287 1.60447,0.34249 -0.68273,-0.85084 -0.90773,-1.92259 -0.5,-2.38166 0.40772,-0.45908 0.20059,-0.51823 -0.46031,-0.13145 -0.68182,0.39903 -2.62845,-0.68583 -4.5,-2.50785 l -3.29837,-3.21108 3,1.79177 3,1.79177 -2.9271,-3.18973 c -3.15443,-3.43744 -2.85299,-5.72879 0.3631,-2.76007 1.07155,0.98912 2.53681,1.57652 3.25614,1.30532 0.79981,-0.30155 0.27734,-0.9121 -1.345,-1.57175 -1.45907,-0.59326 -2.97094,-1.6036 -3.3597,-2.2452 -0.47722,-0.78762 -1.59151,-0.30203 -3.4303,1.49486 -2.44908,2.39329 -2.97479,2.52843 -5.218,1.34138 -2.15921,-1.14262 -2.37207,-1.69478 -1.5835,-4.10777 0.57308,-1.75362 1.62728,-2.78773 2.84188,-2.78773 1.81102,0 1.77723,-0.23739 -0.54444,-3.82497 -7.68101,-11.86915 -6.87544,-28.196619 1.91455,-38.804469 7.39811,-8.92812 20.28573,-9.80296 27.463533,-1.86429 2.36358,2.61414 2.3782,2.72837 0.52598,4.10983 -1.68355,1.25566 -2.23708,1.1361 -4.758233,-1.02772 -1.56918,-1.34678 -3.95993,-2.73204 -5.31277,-3.07837 -5.06423,-1.29645 -14.10565,2.34653 -13.01549,5.24423 0.31702,0.84267 0.0241,1.20507 -0.73421,0.90828 -0.76805,-0.30063 -2.21533,1.58291 -3.69907,4.81409 -4.96056,10.802769 -2.34844,24.456359 5.64257,29.493819 3.47969,2.19356 8.36585,2.57382 11.7358,0.91332 2.10998,-1.03966 2.11825,-1.02232 0.24313,0.51 -1.06762,0.87245 -2.38012,1.58626 -2.91667,1.58626 -0.53654,0 -0.71407,0.26669 -0.39451,0.59264 0.31956,0.32595 1.63206,0.0391 2.91666,-0.63746 5.64219,-2.97152 9.761823,-8.77359 10.414443,-14.66764 0.19106,-1.72559 0.64148,-4.17016 1.00093,-5.43241 0.57588,-2.02228 0.29292,-2.29498 -2.3813,-2.29498 -3.950003,0 -6.198423,0.91926 -6.198423,2.53421 0,0.71279 -0.675,1.86738 -1.5,2.56576 -1.03636,0.87729 -1.5,0.9159 -1.5,0.12488 0,-0.62968 0.45,-1.14488 1,-1.14488 0.55,0 1,-0.70637 1,-1.56973 0,-1.27627 -0.39376,-1.19554 -2.10635,0.43189 -1.1585,1.10088 -1.81012,2.49049 -1.44806,3.08803 0.39245,0.64769 0.0761,0.85854 -0.78348,0.5221 -1.36337,-0.53363 -7.26288,4.39488 -6.3614,5.31438 0.23205,0.23669 1.63862,-0.0415 3.1257,-0.61818 1.48708,-0.57669 3.23699,-1.01295 3.88869,-0.96948 0.65169,0.0435 -1.0651,0.90734 -3.8151,1.91968 -4.34149,1.5982 -5.19755,1.64854 -6.5,0.38227 -1.32667,-1.28982 -1.22703,-1.66946 0.86235,-3.28549 l 2.36235,-1.82714 -2.82384,-2.26564 c -2.30924,-1.85277 -2.55751,-2.43413 -1.36235,-3.19021 0.80382,-0.50851 1.48814,-1.51359 1.52071,-2.2335 0.20915,-4.62297 2.61308,-6.973349 7.60118,-7.431879 0.91321,-0.0839 2.93821,-1.02369 4.5,-2.0883 2.76698,-1.88617 3.26295,-2.10642 5.339603,-2.37119 0.55,-0.0701 0.8875,-0.67981 0.75,-1.35485 -0.1375,-0.67505 0.5245,-1.2488 1.47112,-1.27499 2.79649,-0.0774 7.9632,-6.51839 7.19895,-8.97445 -0.50634,-1.62723 -0.29927,-1.9541 0.93251,-1.47198 0.87085,0.34087 1.84934,0.18081 2.17441,-0.35569 0.32508,-0.53649 -0.13707,-0.97545 -1.02699,-0.97545 -0.88992,0 -1.35701,-0.43078 -1.03798,-0.9573 0.31902,-0.52652 -0.0434,-1.32976 -0.80551,-1.78499 -0.76205,-0.45523 -2.11098,-2.27584 -2.99761,-4.04581 -0.88663,-1.76997 -4.3108,-5.21245 -7.609253,-7.64995 -10.90783,-8.0607 -15.04716,-12.31249 -15.23774,-15.65175 -0.096,-1.682989 -0.59404,-3.628695 -1.10662,-4.32379 -3.19226,-4.328854 4.68252,-16.011632 11.54217,-17.1236 3.13846,-0.508754 3.58251,-0.292324 4.15245,2.023913 0.65177,2.648747 2.014013,3.366039 3.073103,1.618141 0.32507,-0.536495 1.13913,-0.841221 1.80902,-0.677168 0.66988,0.164052 0.88047,0.105757 0.46797,-0.129547 -1.57234,-0.896911 -0.66025,-3.317805 1.25,-3.317805 1.1,0 2,-0.489927 2,-1.088729 0,-0.640329 -0.92668,-0.822855 -2.25,-0.44318 -1.2375,0.355052 -1.8,0.271233 -1.25,-0.186263 1.48122,-1.232094 1.67756,-3.381795 0.30887,-3.381795 -0.65512,0 -0.31762,-0.673897 0.75,-1.497551 1.81756,-1.402221 1.6865,-1.510006 -2.05887,-1.693226 -3.757143,-0.183795 -3.801523,-0.220741 -0.73102,-0.608505 1.79795,-0.227057 3.02891,-0.80905 2.73548,-1.293318 -0.29342,-0.484268 0.37303,-1.173963 1.48102,-1.532655 1.89149,-0.612338 2.49115,-2.590823 2.07439,-6.8440449 -0.11937,-1.218288 0.86471,-0.683534 3.28485,1.7849879 3.42813,3.496677 5.99592,4.417767 7.12427,2.555549 0.32287,-0.532849 -0.29049,-1.447838 -1.36301,-2.033308 -3.71484,-2.0278719 -5.27417,-4.2320969 -4.05441,-5.7312019 0.61634,-0.757485 0.88396,-1.767803 0.59473,-2.245151 -0.28924,-0.477349 1.92262,-0.369217 4.91523,0.240292 3.65853,0.745137 5.95069,1.850249 6.9965,3.373209 0.86737,1.263106 2.61004,2.26501 3.93966,2.26501 1.31135,0 2.66239,0.4589969 3.00231,1.0199939 0.35789,0.590657 -0.60572,1.019993 -2.28929,1.019993 -2.47712,0 -3.14664,0.621398 -4.52456,4.199371 -1.45569,3.779921 -1.87874,4.132422 -4.23548,3.529094 -1.70179,-0.435664 -2.39325,-0.298945 -1.97544,0.390598 0.35354,0.583482 2.19125,1.060877 4.08379,1.060877 3.71562,0 4.58985,1.837651 1.94098,4.079973 -0.825,0.698378 -1.49945,1.787323 -1.49878,2.419878 0.002,2.186962 4.59262,6.581313 10.66957,10.214128 3.35532,2.005814 6.38761,4.409888 6.73843,5.34239 0.35082,0.932501 0.92884,1.398652 1.28449,1.035893 0.35565,-0.362761 1.58256,-0.04206 2.72646,0.712653 1.14391,0.754718 3.30915,1.680972 4.81164,2.05834 1.59356,0.40024 3.36156,1.928276 4.24322,3.667299 l 1.51141,2.981175 -4.05893,-0.0571 c -2.84855,-0.0401 -4.40927,-0.62934 -5.23377,-1.975959 -1.15807,-1.891446 -5.69374,-2.733389 -5.69374,-1.056911 0,0.474049 0.9,1.69268 2,2.70807 1.1,1.01539 2,2.30105 2,2.85701 0,0.55597 -1.14992,-0.25474 -2.55538,-1.80158 -1.40547,-1.54684 -2.82656,-2.53584 -3.15799,-2.19778 -0.33144,0.33806 -1.21206,0.09875 -1.95695,-0.531821 -0.99944,-0.846043 -1.0665,-1.500235 -0.25592,-2.496453 1.7561,-2.158277 0.064,-3.570744 -3.90339,-3.258342 -3.17604,0.250089 -3.63108,0.01427 -3.37867,-1.750974 0.23113,-1.616426 0.09,-1.733898 -0.67973,-0.565776 -0.83312,1.26432 -1.47526,1.197453 -4.51021,-0.469651 -2.34521,-1.28823 -3.13062,-2.201164 -2.32863,-2.706728 0.89881,-0.566599 0.91974,-1.059083 0.0814,-1.91421 -0.8068,-0.82293 -1.32042,-0.835046 -1.80066,-0.04247 -0.36954,0.609876 -2.10783,1.118948 -3.86287,1.131268 -3.4928,0.02452 -11.01748,3.140834 -12.16775,5.039222 -0.97611,1.61096 2.04979,3.743458 7.21046,5.081555 5.72276,1.483838 7.55747,4.46767 6.71765,10.92506 -0.55103,4.2369 -0.33893,5.23918 1.46009,6.89982 1.97188,1.8202 1.99976,2.06121 0.44168,3.81729 -0.91472,1.03094 -1.2446,1.87443 -0.73309,1.87443 1.3019,0 15.55977,-14.77649 14.90364,-15.44575 -0.29477,-0.30066 0.38618,-1.39785 1.51322,-2.4382 2.00045,-1.84657 2.03181,-1.8444 1.3189,0.0913 -0.67171,1.82382 -0.57708,1.86013 1.18025,0.45281 1.55398,-1.24446 1.49561,-0.98085 -0.31276,1.41255 -1.22281,1.6184 -2.22329,3.59622 -2.22329,4.39517 0,0.79895 -0.387,1.20867 -0.85999,0.9105 -1.13964,-0.71842 -13.14001,10.39997 -13.14001,12.17427 0,0.86941 1.00476,1.31026 2.71081,1.18941 3.56983,-0.25288 4.1882,2.65656 1.38622,6.5222 -1.15336,1.59121 -2.09703,4.0321 -2.09703,5.42419 0,2.78542 -1.48458,4.32731 -2.52045,2.61773 -1.0074,-1.66258 -5.64098,3.98578 -5.28457,6.44192 0.16776,1.1561 0.93016,2.31224 1.69422,2.5692 0.77178,0.25957 1.10766,0.003 0.75574,-0.57821 -0.3484,-0.57499 0.0127,-1.29837 0.80254,-1.6075 2.46472,-0.96472 4.68669,-5.41561 10.04028,-20.11209 2.84875,-7.8203 5.44345,-13.94955 5.76599,-13.62056 0.32255,0.32899 1.37094,-0.62307 2.32977,-2.11569 1.13084,-1.76037 2.37174,-2.54623 3.53196,-2.23676 0.98374,0.2624 1.95282,-0.0254 2.15351,-0.63945 0.60307,-1.84539 7.23982,1.97215 8.55774,4.92252 0.64998,1.45506 1.59877,2.3827 2.10843,2.06142 0.50965,-0.32129 1.25227,-0.0468 1.65025,0.61008 0.45192,0.74584 0.29014,0.92097 -0.4309,0.46643 -0.63498,-0.40028 -1.151,-0.35645 -1.14671,0.0974 0.0134,1.41731 5.24314,3.41123 6.40852,2.44335 2.32773,-1.93323 11.70646,-4.01387 16.11025,-3.574 9.80351,0.97922 20.65299,9.75763 23.45837,18.98037 2.76533,9.09111 1.87843,19.758659 -2.33346,28.066389 -2.17199,4.28415 -9.56384,11.51872 -11.76913,11.51872 -1.03529,0 -1.88235,0.38249 -1.88235,0.84999 0,0.4675 -0.675,0.9265 -1.5,1.01999 -0.825,0.0935 -2.175,0.2465 -3,0.34 -0.825,0.0935 -1.5,0.54094 -1.5,0.9943 0,0.9465 -9.0395,0.47859 -13.5,-0.69878 -11.68886,-3.08534 -20.66395,-16.51857 -20.07407,-30.045319 0.27997,-6.42007 2.24831,-12.30009 6.19651,-18.51082 1.67686,-2.63779 1.64266,-2.81659 -1.46307,-7.64995 -1.74903,-2.72197 -4.09784,-6.06089 -5.21957,-7.41982 -2.01175,-2.43714 -2.0656,-2.44409 -3.95415,-0.51 -1.05304,1.07844 -4.42788,8.79595 -7.49965,17.15002 -6.54835,17.80907 -9.34571,23.312099 -12.22591,24.051069 -1.15638,0.2967 -3.07062,1.80169 -4.25388,3.34443 -1.18325,1.54274 -2.79371,2.80498 -3.57879,2.80498 -0.78508,0 -1.46185,0.34425 -1.50393,0.76499 -0.45281,4.52743 -4.98556,14.37294 -7.82292,16.99206 -1.12938,1.04251 -1.78986,2.33041 -1.46775,2.86202 0.32211,0.5316 -0.53352,2.1915 -1.901393,3.68865 -4.1405,4.5318 -4.92312,7.1362 -5.45653,18.15829 l -0.51171,10.57364 h 4.55939 c 5.759393,0 6.610303,1.37102 2.852573,4.59617 -1.625263,1.3949 -3.741023,4.48864 -4.701703,6.87496 -2.11381,5.25068 -3.05931,22.15519 -1.71173,30.60359 0.51453,3.22573 0.55363,5.86497 0.0869,5.86497 -0.46673,0 -0.84861,-0.48609 -0.84861,-1.0802 0,-0.5941 -0.45,-0.79651 -1,-0.44979 -0.55279,0.34847 -1.02017,-0.42288 -1.0451,-1.72479 -0.041,-2.1386 -0.17143,-2.07379 -1.41879,0.70479 -1.02349,2.27991 -1.39438,2.5616 -1.45489,1.10499 -0.0447,-1.07523 -0.40758,-1.6221 -0.80646,-1.21525 -0.39887,0.40686 -1.26464,-0.77889 -1.92392,-2.63498 l -1.19868,-3.37472 -0.10789,4.07998 c -0.0957,3.61776 -0.25837,3.87776 -1.43632,2.29498 -1.80688,-2.42787 -2.51537,-2.24215 -1.94553,0.51 0.45294,2.18757 0.41745,2.20162 -0.75839,0.30023 -1.22426,-1.97966 -1.23878,-1.97966 -1.92084,0 -0.64786,1.88038 -0.72924,1.86008 -1.41932,-0.35393 z m 1.19399,-59.51355 c -1.49216,-0.94065 -2.75786,-0.13683 -2.75786,1.75147 0,1.21308 0.35181,1.25433 1.96011,0.22985 1.34862,-0.85907 1.59749,-1.47717 0.79775,-1.98132 z m -43.75786,1.23283 c 0,-1.42136 -1.83834,-2.32249 -3.10676,-1.52289 -0.77153,0.48636 -0.69581,0.96329 0.25,1.57457 1.78509,1.15371 2.85676,1.13432 2.85676,-0.0517 z M 182.64935,121.39772 c 8.65174,-4.18761 14.38459,-14.54331 14.38459,-25.984069 0,-3.41373 -0.40276,-5.88799 -0.90674,-5.57029 -0.49871,0.31438 -0.68591,-0.28974 -0.41601,-1.3425 0.94504,-3.68607 -3.60859,-10.61098 -10.17725,-15.477 -1.84796,-1.36896 -1.89567,-1.3459 -0.62756,0.3034 1.69679,2.20682 0.91738,2.25397 -3.01057,0.18214 -3.99011,-2.10462 -12.8447,-2.04517 -17.31022,0.11622 -1.95341,0.94549 -3.55165,2.02538 -3.55165,2.39975 0,1.26233 7.14658,12.34679 7.96045,12.34679 0.44346,0 1.04164,0.91799 1.3293,2.03999 0.36903,1.43937 1.36401,2.03998 3.3795,2.03998 1.96943,0 3.16304,0.6922 3.84362,2.229 1.16939,2.64054 4.14535,4.05179 3.19015,1.51282 -0.33862,-0.90008 -0.18533,-1.90779 0.34065,-2.23936 1.18607,-0.74768 1.23533,2.58908 0.066,4.4714 -0.58655,0.94421 -1.07299,1.03186 -1.53105,0.27589 -0.47704,-0.7873 -1.22212,-0.75717 -2.57416,0.10407 -1.33337,0.84935 -1.60423,1.579029 -0.90508,2.438289 0.61582,0.75686 0.63719,1.45348 0.0558,1.81996 -0.51803,0.32658 -1.21352,-0.51016 -1.54551,-1.85937 -0.67312,-2.735519 -4.19829,-2.998809 -3.98383,-0.29755 0.10376,1.30691 -0.29337,1.39085 -2.25884,0.47741 -2.14803,-0.99829 -5.367,-5.847379 -5.367,-8.084959 0,-0.48344 -1.64741,-3.40977 -3.66091,-6.50295 l -3.66091,-5.62397 -1.81871,2.82789 c -2.44113,3.79568 -4.20099,12.9047 -3.3681,17.433189 2.15334,11.70775 11.18881,19.57806 22.47651,19.57806 4.12,0 5.0349,-0.32356 5.04743,-1.78499 0.0118,-1.37781 0.20967,-1.4722 0.8673,-0.41381 0.70698,1.13781 1.34261,1.10991 3.73469,-0.16394 5.64678,-3.00706 10.35584,-9.76044 12.37619,-17.74898 l 0.97575,-3.858129 -0.41346,3.772869 c -1.23979,11.31327 -9.90815,19.89226 -22.55578,22.32322 l -4.5,0.86493 5.24945,-0.42747 c 2.88719,-0.23511 6.87687,-1.21518 8.86596,-2.17793 z M 178.3701,90.582151 c -0.90616,-1.48001 -0.85205,-1.87 0.25945,-1.87 0.77242,0 1.40439,0.8415 1.40439,1.87 0,1.02849 -0.11675,1.86998 -0.25945,1.86998 -0.1427,0 -0.77468,-0.84149 -1.40439,-1.86998 z m -5.33616,-2.14979 c 0,-0.52789 0.45,-1.24347 1,-1.59019 0.55,-0.34672 1,0.0852 1,0.95979 0,0.87461 -0.45,1.59019 -1,1.59019 -0.55,0 -1,-0.4319 -1,-0.95979 z m 20.48883,-3.15606 c -0.38158,-1.22629 -2.27503,-4.01486 -4.20767,-6.19684 -1.93263,-2.18197 -3.03442,-3.96721 -2.44841,-3.96721 1.86231,0 8.95321,10.75825 7.83958,11.89415 -0.26935,0.27472 -0.80192,-0.50383 -1.1835,-1.7301 z m -42.45686,23.556649 c -0.57112,-1.08849 -1.44175,-3.72772 -1.93474,-5.86496 -0.57388,-2.488 -0.93246,-3.048529 -0.99678,-1.55815 -0.10631,2.46358 2.39079,9.40217 3.38371,9.40217 0.32241,0 0.11893,-0.89057 -0.45219,-1.97906 z m -51.531973,-3.34777 c 0.688213,-0.72868 -0.24717,-0.86188 -3,-0.4272 -2.2,0.34738 -5.26406,0.63666 -6.80902,0.64284 -1.54496,0.006 -2.60055,0.35547 -2.34575,0.77622 0.66886,1.1045 10.96864,0.26402 12.15477,-0.99186 z m 6.500003,-0.79313 c 0,-0.56099 -0.19844,-1.01999 -0.44098,-1.01999 -0.24254,0 -0.7191,0.459 -1.05902,1.01999 -0.33992,0.561 -0.14148,1.02 0.44098,1.02 0.58246,0 1.05902,-0.459 1.05902,-1.02 z m 6.74986,-1.61513 c -0.95295,-0.97201 -2.86349,0.60241 -2.1533,1.77449 0.42212,0.69665 0.98146,0.67906 1.69964,-0.0534 0.58876,-0.60053 0.79291,-1.37498 0.45366,-1.72101 z m -15.695143,-1.00211 c 0.71479,-0.87848 2.56989,-2.267259 4.122453,-3.086169 3.21007,-1.69318 3.59374,-3.6089 1.13087,-5.64662 -0.93058,-0.76994 -1.38553,-0.87815 -1.01101,-0.24047 0.79676,1.3566 -1.786253,3.87295 -3.115443,3.03503 -0.4983,-0.31412 -0.84837,0.44961 -0.77792,1.69718 0.15372,2.722309 -1.41437,4.750099 -3.14841,4.071369 -0.69039,-0.27022 -1.25526,0.0168 -1.25526,0.63781 0,1.66667 2.55803,1.37134 4.05472,-0.46813 z m 7.445283,0.57726 c 0.33992,-0.561 0.33917,-1.48024 -0.002,-2.04275 -0.73099,-1.206949 -4.498,0.53375 -4.498,2.07863 0,1.30024 3.70834,1.27067 4.5,-0.0359 z m 14,-1.02 c 0.33992,-0.56099 0.16803,-1.01999 -0.38197,-1.01999 -0.55,0 -1.27811,0.459 -1.61803,1.01999 -0.33992,0.561 -0.16803,1.02 0.38197,1.02 0.55,0 1.27811,-0.459 1.61803,-1.02 z m -4.59783,-6.272159 c 0.60381,-1.76671 1.09783,-3.28223 1.09783,-3.36784 0,-0.0856 -1.6875,-0.17186 -3.75,-0.19171 -2.0625,-0.0199 -3.01082,0.14285 -2.10739,0.36154 1.12015,0.27115 1.46764,1.08014 1.09248,2.54342 -0.3722,1.45175 -0.17945,1.91211 0.59593,1.42331 0.74301,-0.46838 0.93663,-0.16576 0.55054,0.86049 -0.32755,0.87064 -0.14141,1.58297 0.41363,1.58297 0.55504,0 1.50318,-1.44548 2.10698,-3.21218 z m -3.173,-6.58401 c -0.3323,-0.33893 -1.1948,-0.37516 -1.91667,-0.0805 -0.79773,0.3256 -0.56078,0.5673 0.60417,0.61623 1.05416,0.0443 1.64479,-0.19677 1.3125,-0.53572 z m 48.30131,-8.50559 c -0.9171,-1.74789 -4.03048,-3.68903 -4.03048,-2.51294 0,0.29761 0.7875,1.61291 1.75,2.92288 1.99569,2.71615 3.7548,2.39993 2.28048,-0.40994 z m -50.03048,-12.80801 c 1.01957,-1.25307 0.95124,-1.52999 -0.37756,-1.52999 -0.89234,0 -1.62244,0.68849 -1.62244,1.52999 0,0.84149 0.1699,1.52999 0.37756,1.52999 0.20765,0 0.93775,-0.6885 1.62244,-1.52999 z M 97.053997,56.217721 c 0.69572,-0.85505 0.97582,-1.84954 0.62244,-2.20998 -0.35337,-0.36044 -0.6425,-0.11985 -0.6425,0.53464 0,0.6545 -0.64844,1.18999 -1.44098,1.18999 -0.79254,0 -1.7191,0.459 -2.05902,1.02 -0.99659,1.64475 2.1336,1.16932 3.52006,-0.53465 z m 10.375073,-4.738399 c -0.27275,-0.450135 -1.48573,-0.629447 -2.69552,-0.39847 -1.20978,0.230976 -2.53711,0.454065 -2.94961,0.495753 -0.4125,0.04169 -0.75,0.937816 -0.75,1.991406 0,1.81171 0.18687,1.82921 3.44552,0.32267 1.89503,-0.87611 3.22235,-1.961222 2.94961,-2.411359 z M 92.863837,49.098918 c -0.30744,-0.313589 -1.34919,0.706405 -2.315,2.266653 l -1.75601,2.83681 2.315,-2.266648 c 1.27325,-1.246659 2.06345,-2.523225 1.75601,-2.836815 z m 2.6701,3.573473 c 0.33992,-0.560993 0.14148,-1.01999 -0.44098,-1.01999 -0.58246,0 -1.05902,0.458997 -1.05902,1.01999 0,0.561 0.19844,1.02 0.44098,1.02 0.24254,0 0.7191,-0.459 1.05902,-1.02 z m 52.229173,-4.696216 c -0.3323,-0.338935 -1.1948,-0.375172 -1.91667,-0.08053 -0.79773,0.325609 -0.56078,0.567303 0.60417,0.616247 1.05416,0.04429 1.64479,-0.196786 1.3125,-0.535721 z M 89.033937,38.392488 c 0,-0.560996 -0.19844,-1.019993 -0.44098,-1.019993 -0.24254,0 -0.7191,0.458997 -1.05902,1.019993 -0.33992,0.560996 -0.14148,1.019993 0.44098,1.019993 0.58246,0 1.05902,-0.458997 1.05902,-1.019993 z m 3.5,-2.039987 c 0.33992,-0.560996 -0.0835,-1.019993 -0.94098,-1.019993 -0.85746,0 -1.55902,0.458997 -1.55902,1.019993 0,0.560997 0.42344,1.019994 0.94098,1.019994 0.51754,0 1.2191,-0.458997 1.55902,-1.019994 z m 25.371863,-1.31306 c 1.14236,0.398185 1.03141,0.07975 -0.37186,-1.067261 -1.1,-0.899125 -2.81708,-1.649371 -3.81574,-1.667213 -0.99866,-0.01784 -2.7247,-0.528624 -3.83565,-1.135072 -2.2395,-1.222508 -4.05816,-0.290249 -1.98424,1.017133 0.71855,0.452966 1.38052,1.231253 1.47104,1.729528 0.0905,0.498276 1.17709,0.880394 2.41459,0.849153 1.2375,-0.03124 2.25,0.404807 2.25,0.968994 0,0.61732 0.44673,0.570137 1.12186,-0.118489 0.61702,-0.629356 1.85452,-0.888905 2.75,-0.576773 z m 65.17636,156.315099 c -0.0841,-17.56029 -0.24244,-19.08231 -2.51148,-24.13762 -1.50476,-3.35255 -3.39011,-5.84557 -4.97924,-6.5841 -1.40662,-0.65372 -2.5575,-1.52036 -2.5575,-1.92588 0,-0.947 3.71928,-1.96342 7.25,-1.98131 2.54898,-0.0129 2.75809,-0.3308 2.86069,-4.34889 0.25095,-9.82792 -0.97565,-14.62167 -4.63971,-18.13269 -1.35904,-1.30227 -2.47098,-2.74677 -2.47098,-3.20997 0,-0.46321 6.5479,-0.8422 14.55089,-0.8422 h 14.55089 l -2.63967,3.52999 c -3.53854,4.73202 -6.30827,5.55633 -8.67069,2.58053 -1.70829,-2.15182 -1.95551,-2.19525 -3.64082,-0.63957 -0.99444,0.91796 -2.33515,1.66901 -2.97934,1.66901 -0.64419,0 -1.17126,0.459 -1.17126,1.01999 0,1.58437 1.16583,1.21669 3.63039,-1.14493 l 2.25929,-2.16494 -0.28076,2.68604 c -0.15442,1.47733 -1.3671,3.92941 -2.69484,5.44905 -1.32775,1.51965 -1.64629,2.16363 -0.70788,1.43106 0.9384,-0.73257 2.20964,-1.01456 2.82496,-0.62667 1.71801,1.08301 10.25865,-5.37966 13.33883,-10.09346 l 2.74845,-4.20609 -0.65296,4.37025 c -0.42504,2.84475 -0.22844,4.89199 0.56322,5.86496 1.82832,2.24703 3.88007,1.8692 3.24752,-0.59803 -0.47385,-1.84824 -0.20003,-2.01704 2.34362,-1.4448 1.58409,0.35638 3.41359,0.81332 4.06555,1.01545 0.65197,0.20213 1.40394,-0.18045 1.67105,-0.85019 0.26712,-0.66973 0.52119,-0.26144 0.56461,0.90729 0.1245,3.35094 1.18339,3.62466 3.31735,0.85754 1.11596,-1.44708 1.75049,-3.42571 1.46086,-4.55538 -0.28161,-1.09841 -0.31153,-1.99712 -0.0665,-1.99712 0.24505,0 2.66422,2.29906 5.37594,5.10901 6.08922,6.30981 8.59533,10.55448 5.86628,9.9359 -0.61875,-0.14025 -1.35515,0.39189 -1.63645,1.18253 -0.3545,0.99638 -0.009,1.24096 1.125,0.797 1.36614,-0.53471 1.63645,0.11908 1.63645,3.95807 0,4.95521 -2.51921,10.99763 -5.87619,14.09429 l -2.08901,1.92702 4.52441,4.06217 c 6.62236,5.94578 9.19538,12.24404 8.53768,20.89861 -0.1142,1.50272 -4.09689,1.75062 -4.09689,0.255 0,-0.561 0.675,-1.02 1.5,-1.02 0.825,0 1.5,-0.45899 1.5,-1.01999 0,-0.561 -0.70156,-1.01999 -1.55902,-1.01999 -0.85746,0 -1.30946,-0.41186 -1.00446,-0.91523 0.30501,-0.50339 0.26531,-2.39043 -0.0882,-4.19343 l -0.64279,-3.27819 -2.44706,5.25162 c -2.09082,4.48707 -2.7609,5.15587 -4.60276,4.59395 -1.18563,-0.36172 -2.81462,-1.2969 -3.61998,-2.07819 -1.28268,-1.24433 -1.26494,-1.42052 0.143,-1.42052 2.88685,0 2.90177,-2.81822 0.0188,-3.55626 -2.33915,-0.59883 -2.4546,-0.80589 -0.93343,-1.6742 2.20054,-1.25612 2.24674,-2.92949 0.0809,-2.92949 -1.48832,0 -1.47271,-0.20543 0.15499,-2.03998 1.75677,-1.98002 1.74663,-2.03999 -0.34501,-2.03999 -1.80298,0 -2.15498,-0.59296 -2.15498,-3.63018 0,-2.37259 -0.37972,-3.39079 -1.09612,-2.93919 -0.60286,0.38005 -0.90833,1.99602 -0.67882,3.59104 0.27149,1.88681 -0.0837,3.09614 -1.01651,3.46127 -1.09423,0.42828 -1.16425,0.89248 -0.29565,1.96 0.87711,1.07798 0.76243,1.54586 -0.5,2.03998 -1.32802,0.5198 -1.40433,0.92855 -0.40308,2.1591 1.87166,2.3003 0.50567,1.83421 -4.23058,-1.44354 -2.35358,-1.62881 -5.74174,-3.22382 -7.52924,-3.54448 l -3.24998,-0.58301 v 12.78462 c 0,7.34349 -0.38414,12.54245 -0.90259,12.21562 -0.49642,-0.31293 -1.46661,0.92222 -2.15597,2.7448 l -1.25338,3.31376 -0.71239,-3.56998 c -0.66691,-3.34207 -0.72079,-3.38394 -0.84403,-0.65586 -0.0968,2.1424 -0.52886,2.75863 -1.63164,2.32699 -0.825,-0.32291 -1.5,-0.14251 -1.5,0.40087 0,1.72435 -2.11261,1.07267 -5.24892,-1.61912 l -3.03763,-2.6071 -1.78774,2.77973 c -1.75245,2.72487 -1.78951,2.40972 -1.87749,-15.96235 z m 27.91815,-26.97514 c 3.38843,-1.78725 5.5387,-7.38682 4.62534,-12.04493 -0.6771,-3.4532 -4.16932,-7.86268 -6.22707,-7.86268 -0.7077,0 -2.15818,-0.95409 -3.22328,-2.1202 -1.85295,-2.02867 -2.07447,-2.04744 -5.13188,-0.43478 -1.75744,0.92697 -2.96706,1.91825 -2.68806,2.20284 0.27901,0.28458 1.41624,0.0212 2.52719,-0.58521 2.87974,-1.57201 3.3658,-1.37716 2.18387,0.87545 -0.6902,1.31543 -0.70199,2.18983 -0.0352,2.61018 0.55148,0.34766 1.0027,4.73598 1.0027,9.75184 0,8.5134 0.13628,9.11974 2.04966,9.11974 1.12731,0 3.33983,-0.68051 4.91671,-1.51225 z M 196.2082,148.32151 c -0.55,-0.561 -1.53725,-0.6813 -2.19389,-0.26737 -0.90708,0.57182 -0.87942,0.95087 0.11512,1.57782 1.70594,1.0754 3.38199,0.0189 2.07877,-1.31045 z m 30.51814,-3.91935 c -0.42214,-1.64653 -0.20432,-1.7757 1.4612,-0.86652 1.0765,0.58765 2.49483,0.88317 3.15184,0.65672 0.65701,-0.22644 -0.30027,-1.20305 -2.12727,-2.17022 -2.45599,-1.30013 -3.66593,-1.4672 -4.64194,-0.641 -1.6534,1.39963 -2.80187,5.41849 -1.27303,4.45472 0.68398,-0.43117 0.84054,-0.051 0.42924,1.04219 -0.55202,1.46732 -0.34214,1.55426 1.42431,0.58999 1.34994,-0.73691 1.8989,-1.80507 1.57565,-3.06588 z m -12.6924,-1.15436 c 0,-0.95199 0.26667,-0.95199 1.2,0 2.126,2.16851 2.89663,1.30264 1.19635,-1.3442 -1.54594,-2.40657 -1.73418,-2.45471 -2.99125,-0.76499 -1.61483,2.1706 -1.75612,3.33318 -0.4051,3.33318 0.55,0 1,-0.5508 1,-1.22399 z m -26.36163,64.97357 c -0.31658,-0.84149 -0.13972,-1.52999 0.39301,-1.52999 0.53274,0 0.96862,0.6885 0.96862,1.52999 0,0.8415 -0.17686,1.52999 -0.39301,1.52999 -0.21616,0 -0.65203,-0.68849 -0.96862,-1.52999 z M 19.033937,206.24159 c 0,-2.4389 1.82719,-2.80542 2.98501,-0.59877 0.9251,1.76312 0.78485,2.06856 -0.94983,2.06856 -1.11935,0 -2.03518,-0.66141 -2.03518,-1.46979 z m 29.5,-1.59019 c -0.33992,-0.561 0.30852,-1.02 1.44098,-1.02 1.13246,0 2.05902,0.459 2.05902,1.02 0,0.56099 -0.64844,1.01999 -1.44098,1.01999 -0.79254,0 -1.7191,-0.459 -2.05902,-1.01999 z m 163.500003,0.61912 c 0,-0.22048 0.69837,-0.67421 1.55194,-1.00831 0.88992,-0.34832 1.29132,-0.17733 0.94098,0.40087 -0.58726,0.9692 -2.49292,1.43355 -2.49292,0.60744 z M 20.112887,199.80643 c 0.0434,-1.54274 0.30592,-2.23124 0.58333,-1.52999 0.27741,0.70124 1.11533,1.27499 1.86204,1.27499 0.7467,0 1.68302,0.537 2.08071,1.19333 0.48618,0.80238 0.1779,0.97995 -0.94099,0.54201 -0.91522,-0.35823 -1.66404,-0.20673 -1.66404,0.33665 0,0.5434 -0.45,0.98799 -1,0.98799 -0.55,0 -0.96447,-1.26224 -0.92105,-2.80498 z m 9.52607,1.95831 c -0.32644,-0.53876 0.18845,-1.28563 1.1442,-1.65972 1.55294,-0.60783 1.48469,-0.87485 -0.64178,-2.51092 -1.41915,-1.09187 -1.95743,-2.09682 -1.33371,-2.48999 1.7389,-1.0962 4.15491,0.39017 3.49319,2.14907 -0.40163,1.06757 -0.21123,1.36355 0.56314,0.87539 1.88765,-1.18995 1.34151,0.94831 -0.73078,2.86121 -1.08565,1.00214 -2.15525,1.33446 -2.49426,0.77496 z m 99.616453,-0.34103 c 0.21348,-0.65324 1.48848,-1.89452 2.83334,-2.75842 l 2.44519,-1.57072 -2.42431,2.75842 c -2.61706,2.97773 -3.46686,3.44539 -2.85422,1.57072 z m 101.25719,-0.87634 c -1.20996,-1.36372 -1.37535,-2.01593 -0.5112,-2.01593 0.97178,0 1.00382,-0.33627 0.13391,-1.40541 -0.90392,-1.11094 -0.67128,-1.53137 1.11031,-2.00657 3.21112,-0.85652 4.47004,0.92808 1.71546,2.43175 -2.12915,1.16228 -2.16707,1.33864 -0.54752,2.54656 0.95703,0.71379 1.32327,1.56055 0.81387,1.88167 -0.50941,0.32113 -1.73108,-0.3233 -2.71483,-1.43207 z m 8.02134,0.0241 c 0.33992,-0.56099 1.04148,-1.01999 1.55902,-1.01999 0.51754,0 0.94098,0.459 0.94098,1.01999 0,0.561 -0.70156,1.02 -1.55902,1.02 -0.85746,0 -1.2809,-0.459 -0.94098,-1.02 z m -91.25,-0.67552 c -1.74117,-0.71662 -1.56631,-2.38446 0.25,-2.38446 0.825,0 1.5,0.6885 1.5,1.52999 0,0.8415 -0.1125,1.49375 -0.25,1.44946 -0.1375,-0.0443 -0.8125,-0.31203 -1.5,-0.59499 z m -18.13923,-13.34938 c -0.10953,-6.03072 -0.46812,-12.11243 -0.79686,-13.51492 -1.15758,-4.93852 -4.32229,-10.08965 -7.30172,-11.88483 -1.6567,-0.99825 -3.01219,-2.1542 -3.01219,-2.56882 0,-1.13882 6.53587,-2.15401 8.91306,-1.38443 1.85111,0.59926 2.08694,0.26223 2.08694,-2.98254 0,-3.44761 0.15246,-3.61912 2.64915,-2.97996 1.86439,0.47729 2.43937,0.33197 1.94099,-0.49056 -0.3895,-0.64281 -0.20618,-1.16875 0.40738,-1.16875 0.67404,0 0.41193,-1.21495 -0.66225,-3.06975 -0.97779,-1.68837 -2.24073,-2.89548 -2.80654,-2.68248 -1.66724,0.62763 -7.81772,-2.30979 -10.66904,-5.09545 -1.78759,-1.74643 -2.86858,-2.20276 -3.34714,-1.41296 -0.38875,0.6416 -1.90062,1.65194 -3.35969,2.2452 -1.62234,0.65965 -2.14481,1.2702 -1.345,1.57175 0.71933,0.2712 2.18459,-0.3162 3.25613,-1.30532 2.5094,-2.31638 3.79977,-1.07508 1.53541,1.47703 -1.11302,1.25446 -1.33769,2.1311 -0.63553,2.47973 0.59737,0.29661 0.51238,0.39872 -0.18887,0.22693 -0.70125,-0.1718 -3.4125,1.79611 -6.025,4.37312 l -4.75,4.68549 v -11.43658 -11.43659 h 14.56695 14.56695 l -3.61478,4.49957 c -1.98814,2.47476 -4.36815,4.79444 -5.28893,5.15483 -1.42254,0.5568 -1.45635,0.79257 -0.225,1.5688 1.69584,1.06905 4.42542,-1.08829 6.27963,-4.96315 1.97448,-4.1262 3.76489,-3.98743 2.50664,0.19428 -0.88526,2.94212 -0.7511,3.9408 0.82578,6.14714 2.42339,3.39077 4.24917,3.46548 3.62751,0.14845 -0.27897,-1.48853 -0.0131,-2.54998 0.63867,-2.54998 0.61412,0 1.11658,0.39737 1.11658,0.88304 0,0.48567 1.84239,0.53939 4.0942,0.11938 3.93032,-0.73307 4.07597,-0.66635 3.63867,1.66695 -0.25054,1.33683 -0.0679,2.43059 0.4058,2.43059 0.47373,0 0.86133,10.78643 0.86133,23.96985 0,13.18341 -0.19571,23.96984 -0.4349,23.96984 -0.2392,0 -1.5892,-0.44763 -3,-0.99475 -3.02491,-1.17306 -3.45726,-3.14334 -0.5651,-2.57523 2.7807,0.54622 2.50114,-0.91171 -0.48768,-2.54326 -1.90862,-1.04188 -2.23156,-1.67275 -1.38737,-2.71026 0.82863,-1.01842 0.69584,-1.5106 -0.53785,-1.99348 -1.26243,-0.49412 -1.37711,-0.962 -0.5,-2.03998 0.86737,-1.06602 0.80305,-1.52996 -0.27033,-1.9501 -0.95614,-0.37423 -1.27833,-1.68842 -1.00322,-4.09204 0.24742,-2.16169 -0.0268,-3.54075 -0.70414,-3.54075 -0.61018,0 -1.10941,1.60649 -1.10941,3.56997 0,2.49332 -0.45238,3.56998 -1.5,3.56998 -1.80819,0 -1.93321,1.19012 -0.3,2.85598 0.93333,0.95199 0.82222,1.22399 -0.5,1.22399 -2.20419,0 -2.18384,1.66244 0.0359,2.92949 1.52117,0.86831 1.40572,1.07537 -0.93343,1.6742 -2.79708,0.71606 -2.90605,3.55626 -0.13643,3.55626 2.20726,0 0.56927,1.92433 -2.99256,3.5157 -2.06792,0.92392 -2.54324,1.44684 -1.36443,1.50107 2.00923,0.0924 1.32719,2.12318 -0.71308,2.12318 -0.95594,0 -1.33715,-2.81444 -1.48517,-10.96492 z m 13.49718,-39.77974 c 1.26518,-1.7 1.32996,-1.7 1.36025,0 0.0175,0.98174 0.4818,1.78498 1.0318,1.78498 1.31409,0 1.2154,-1.00326 -0.3891,-3.95549 l -1.31823,-2.42551 -1.64634,2.39746 c -2.61916,3.81415 -1.73877,5.827 0.96162,2.19856 z m 28.22533,3.56997 c -1.57159,-2.91553 -1.93236,-5.02782 -0.72918,-4.26934 0.51069,0.32193 0.67281,1.00735 0.36027,1.52315 -0.31253,0.51581 0.13013,0.66449 0.98369,0.3304 1.15801,-0.45325 1.55194,0.0675 1.55194,2.05167 0,3.2617 -0.55457,3.3549 -2.16672,0.36412 z m -41.83328,-2.23483 c 0,-0.80839 0.40803,-1.72701 0.90674,-2.0414 0.49871,-0.31438 0.67122,0.34703 0.38337,1.46979 -0.61061,2.38168 -1.29011,2.68274 -1.29011,0.57161 z m 41.46105,-3.67407 c -1.80319,-2.03235 -1.80084,-2.0659 0.095,-1.35704 1.86488,0.69729 1.87277,0.64396 0.19393,-1.31141 -2.19772,-2.55972 -2.24354,-3.81905 -0.10856,-2.9834 1.38865,0.54353 1.44183,0.39714 0.3453,-0.95051 -1.15526,-1.41984 -1.5873,-1.30848 -3.97461,1.02444 -2.48695,2.43028 -2.87367,2.51413 -5.4087,1.17264 -1.50163,-0.79463 -4.09064,-3.33162 -5.75334,-5.63776 l -3.02309,-4.19298 h 10.09333 10.09333 l -0.2311,8.15995 c -0.1271,4.48797 -0.28543,8.15995 -0.35183,8.15995 -0.0664,0 -0.95275,-0.93775 -1.96966,-2.08388 z m -14.1245,-0.77544 c -2.46706,-0.18329 -4.38778,-0.9056 -4.71401,-1.77275 -0.31021,-0.82454 -0.0206,-1.35743 0.66345,-1.22065 0.6677,0.13351 1.07338,-0.41706 0.90151,-1.22349 -0.17188,-0.80643 -0.54649,-2.87192 -0.83247,-4.58997 l -0.51997,-3.12373 2.01408,2.53475 c 1.10774,1.39411 1.84762,2.70452 1.64419,2.91203 -0.65831,0.67146 4.73158,5.24177 5.56338,4.71741 0.4428,-0.27913 1.13072,0.0299 1.5287,0.68671 0.43129,0.71179 0.29172,0.92197 -0.34549,0.52028 -0.58801,-0.37068 -1.22003,-0.32685 -1.40451,0.0974 -0.18448,0.42424 -2.20896,0.63215 -4.49886,0.46201 z m 8.66345,-0.20066 c 0,-0.561 0.47656,-1.02 1.05902,-1.02 0.58246,0 0.7809,0.459 0.44098,1.02 -0.33992,0.56099 -0.81648,1.01999 -1.05902,1.01999 -0.24254,0 -0.44098,-0.459 -0.44098,-1.01999 z M 32.033937,140.39182 c 0,-0.561 0.45,-1.02 1,-1.02 0.55,0 1,0.459 1,1.02 0,0.56099 -0.45,1.01999 -1,1.01999 -0.55,0 -1,-0.459 -1,-1.01999 z m 45,0 c 0,-0.561 0.45,-1.02 1,-1.02 0.55,0 1,0.459 1,1.02 0,0.56099 -0.45,1.01999 -1,1.01999 -0.55,0 -1,-0.459 -1,-1.01999 z m 117.000003,0 c 0,-0.561 0.47656,-1.02 1.05902,-1.02 0.58246,0 0.7809,0.459 0.44098,1.02 -0.33992,0.56099 -0.81648,1.01999 -1.05902,1.01999 -0.24254,0 -0.44098,-0.459 -0.44098,-1.01999 z m -56,-5.60997 -3.09608,-4.58997 h 8.16305 8.16305 l -1.46217,2.29499 c -0.80419,1.26224 -2.08919,3.32773 -2.85555,4.58997 -2.25148,3.7083 -5.41184,2.89448 -8.9123,-2.29499 z m 72.65907,-1.52999 -1.77214,-3.05998 3.30653,0.1017 c 1.8186,0.0559 4.32901,0.40016 5.5787,0.76499 2.14285,0.62558 2.1823,0.79394 0.69329,2.95831 -2.25062,3.27143 -5.66237,2.93709 -7.80638,-0.76499 z m -97.79829,-121.439736 -2.36078,-2.1005229 2.75,1.7078359 c 1.5125,0.939311 2.75,1.884546 2.75,2.100524 0,0.796455 -0.83549,0.341922 -3.13922,-1.707837 z m -2.36078,-7.0794149 c 0.33992,-0.560997 0.81648,-1.019994 1.05902,-1.019994 0.24254,0 0.44098,0.458997 0.44098,1.019994 0,0.560996 -0.47656,1.019993 -1.05902,1.019993 -0.58246,0 -0.7809,-0.458997 -0.44098,-1.019993 z"
       id="path219" />
  </g>
</svg>
